<svg xmlns="http://www.w3.org/2000/svg" viewBox="0 0 1600.87 422.82"><g style="opacity:0.5"><path d="M799.4,422.82c-83.44,0-125.86-19.84-166.88-39s-83.23-38.95-166.45-38.95S340.53,364.21,299.61,383s-83.43,38.2-166.88,38.2c-65.18-.05-103.64-26.3-132.66-52l.66-.75c28.88,25.56,67.15,51.69,132,51.69,83.23,0,125.54-19.37,166.46-38.11s83.43-38.21,166.88-38.21,125.86,19.85,166.87,39.05,83.24,38.94,166.46,38.94S924.85,387,965.75,353.23s83.47-68.83,167-68.83,125.94,33.76,167,66.4,83.16,66.2,166.32,66.2c65.3,0,103.09-7.37,134.21-15.33l.24,1c-31.17,8-69,15.36-134.45,15.36-83.51,0-125.94-33.76-167-66.4s-83.2-66.19-166.36-66.19S1007.29,320.27,966.39,354,882.91,422.82,799.4,422.82Z" style="fill:#c5c9e0"/></g><path d="M799.4,421.82c-83.46,0-125.88-22.13-166.9-43.54s-83.22-43.43-166.43-43.43-125.53,21.53-166.44,42.34-83.44,42.45-166.9,42.45c-65.18,0-103.64-26-132.66-51.47l.66-.75c28.88,25.33,67.15,51.22,132,51.22,83.22,0,125.53-21.52,166.44-42.34s83.44-42.45,166.9-42.45S591.94,356,633,377.4s83.23,43.42,166.44,43.42S924.84,383.3,965.73,347s83.48-74.06,167-74.06,126,35.08,167,69,83.19,68.77,166.35,68.77c65.69,0,104.68-10.84,134.16-21.44l.34.94c-29.56,10.63-68.66,21.5-134.5,21.5-83.52,0-126-35.08-167-69S1215.89,274,1132.73,274,1007.3,311.48,966.4,347.77,882.92,421.82,799.4,421.82Z" style="fill:#5468ff"/><g style="opacity:0.5"><path d="M799.4,420.82c-83.47,0-125.89-24.41-166.92-48s-83.21-47.88-166.41-47.88S340.56,348.6,299.64,371.48s-83.44,46.67-166.91,46.67c-65.17,0-103.63-25.79-132.66-51l.66-.75c28.88,25.1,67.16,50.77,132,50.77,83.21,0,125.51-23.66,166.43-46.54S382.6,324,466.07,324,592,348.33,633,371.94s83.22,47.88,166.42,47.88,125.42-40.15,166.32-79,83.48-79.26,167-79.26,126,36.38,167,71.56,83.19,71.32,166.34,71.32c65.26,0,103-13.38,134.12-27.85l.42.91c-31.2,14.51-69.09,27.94-134.54,27.94-83.52,0-126-36.38-167-71.56s-83.19-71.32-166.34-71.32-125.42,40.15-166.32,79S882.93,420.82,799.4,420.82Z" style="fill:#c5c9e0"/></g><path d="M802.94,420.8v-1c3.34-.05,6.69-.17,10-.36l.06,1C809.65,420.63,806.29,420.75,802.94,420.8Zm-10,0c-3.35-.06-6.71-.16-10-.31l0-1c3.27.15,6.63.25,10,.31Zm-20-.9c-3.36-.25-6.71-.55-10-.9l.11-1c3.24.34,6.58.64,9.92.89Zm50-.24-.11-1c3.31-.35,6.63-.78,9.87-1.28l.15,1c-3.29.46-6.63.9-10,1.25Zm-69.84-1.89c-3.31-.48-6.63-1-9.87-1.59l.17-1c3.23.58,6.54,1.12,9.84,1.59Zm-620.33-.14c-1.77,0-3.52,0-5.25-.05v-1c3.29.07,6.68.06,10,0v1l-4.79,0Zm14.75-.28v-1c3.36-.12,6.71-.3,10-.52l.07,1c-3.38.17-6.74.37-10.11.49Zm-30-.21c-3.36-.21-6.72-.51-10-.88l.11-1c3.25.36,6.59.66,9.93.88Zm725.18-.57-.2-1c3.26-.69,6.51-1.47,9.67-2.32l.26,1c-3.22.81-6.5,1.6-9.78,2.29ZM167.43,416l-.09-1c3.31-.32,6.64-.71,9.9-1.13l.13,1C174.1,415.27,170.76,415.65,167.43,416Zm-69.87-1.11c-3.3-.54-6.62-1.17-9.84-1.87l.21-1c3.21.7,6.5,1.33,9.79,1.86Zm635.82-.69c-3.26-.72-6.53-1.51-9.72-2.35l.26-1c3.17.84,6.43,1.63,9.68,2.35Zm-546.12-.82-.17-1c3.29-.55,6.58-1.17,9.79-1.83l.2,1c-3.22.63-6.53,1.25-9.82,1.81Zm674.7-2-.31-.94c3.14-1,6.28-2.19,9.35-3.41l.37.93c-3.09,1.18-6.25,2.33-9.37,3.37ZM78,410.6c-3.22-.89-6.44-1.88-9.59-3l.32-.94c3.13,1,6.34,2,9.53,2.92Zm128.84-1.31-.24-1c3.22-.8,6.45-1.68,9.61-2.6l.29,1c-3.19.92-6.44,1.8-9.67,2.6Zm507.22-.22c-3.17-1-6.37-2.05-9.48-3.17l.33-.94c3.11,1.11,6.29,2.17,9.45,3.15Zm-655-4.9c-3.07-1.24-6.16-2.6-9.19-4l.43-.91c3,1.42,6.08,2.77,9.13,4ZM880.55,404l-.42-.9c3-1.38,6-2.88,8.9-4.45l.47.88C886.54,401.06,883.53,402.57,880.55,404ZM226,403.67l-.32-.95c3.12-1.06,6.27-2.2,9.36-3.39l.36.93C232.32,401.46,229.16,402.6,226,403.67Zm469.2-1.33c-3.05-1.24-6.14-2.57-9.18-3.95l.41-.91c3,1.38,6.11,2.7,9.15,3.93Zm770.85-2.23v-1h0c3.35,0,6.7,0,10-.13v1c-3.26.09-6.62.13-10,.13Zm-10-.18c-3.36-.13-6.72-.32-10-.57l.08-1c3.25.25,6.6.44,9.95.57Zm30-.37-.06-1c3.37-.19,6.72-.44,10-.72l.09,1c-3.28.29-6.64.53-10,.72Zm-50-1.19c-3.33-.4-6.66-.88-9.9-1.43l.17-1c3.22.54,6.54,1,9.85,1.42Zm69.91-.57-.12-1c3.31-.41,6.63-.87,9.88-1.39l.16,1c-3.21.52-6.55,1-9.88,1.39ZM244.68,396.47l-.4-.92c3-1.29,6.05-2.68,9.07-4.13l.43.91C250.75,393.77,247.69,395.17,244.68,396.47Zm-203.8-.86c-2.89-1.56-5.81-3.25-8.68-5l.52-.86c2.86,1.75,5.77,3.43,8.64,5Zm1375.5-.56c-3.26-.71-6.53-1.51-9.71-2.38l.26-1c3.17.86,6.42,1.66,9.66,2.36Zm109.41-.41-.2-1c3.28-.66,6.56-1.38,9.74-2.16l.24,1C1532.37,393.25,1529.08,394,1525.79,394.64Zm-627.6-.13-.51-.85c2.79-1.7,5.61-3.51,8.38-5.39l.56.83c-2.79,1.9-5.62,3.71-8.43,5.41ZM677,394.09c-2.89-1.45-5.88-3-8.87-4.62l.48-.88c3,1.61,6,3.16,8.84,4.6Zm868.24-4.18-.27-1c3.19-.92,6.4-1.92,9.52-3l.32.95c-3.13,1.14-6.35,2.14-9.56,3.05Zm-148.16-.12c-3.15-1-6.32-2.18-9.41-3.39l.36-.93c3.08,1.2,6.23,2.34,9.36,3.37ZM262.73,387.86l-.46-.89c2.87-1.49,5.74-3,8.78-4.72l.48.87C268.49,384.81,265.61,386.37,262.73,387.86Zm-238.94-2.7c-2.71-1.84-5.45-3.8-8.15-5.82l.6-.8c2.69,2,5.42,4,8.11,5.8Zm635.63-.58c-2.75-1.59-5.56-3.26-8.6-5.1l.52-.85c3,1.83,5.84,3.5,8.58,5.08Zm904.82-1.05-.36-.93c3.06-1.18,6.17-2.45,9.23-3.79l.4.92C1570.43,381.07,1567.31,382.35,1564.24,383.53Zm-649.47-.23-.59-.8c2.59-1.94,5.24-4,7.88-6.14l.63.78C920,379.28,917.38,381.36,914.77,383.3Zm463.69-.78c-3-1.37-6-2.84-9-4.37l.46-.89c2.94,1.53,6,3,8.95,4.35ZM280.21,378.16l-.5-.86c2.64-1.55,5.45-3.22,8.57-5.1l.52.85C285.67,374.94,282.86,376.61,280.21,378.16Zm1302.41-2.61-.44-.9c2.91-1.4,5.9-2.91,8.91-4.5l.46.89c-3,1.58-6,3.11-8.93,4.51Zm-940.31-1.31-8.44-5.32.54-.84,8.43,5.31Zm718.38-.9c-2.83-1.64-5.7-3.4-8.53-5.23l.54-.84c2.82,1.82,5.68,3.57,8.49,5.2ZM7.74,373.18c-2.49-2-5.07-4.19-7.67-6.43L.73,366c2.58,2.24,5.16,4.4,7.64,6.41Zm922.63-2.49-.66-.75c2.41-2.1,4.92-4.34,7.45-6.66l.67.73C935.3,366.34,932.79,368.59,930.37,370.69Zm-633-2.84-.52-.85,2.35-1.45,6.15-3.76.53.85q-3.09,1.88-6.16,3.77Zm1303-1.63-.49-.87.31-.18.5.86Zm-974.9-2.63q-4.22-2.65-8.49-5.28l.52-.85q4.29,2.63,8.5,5.29Zm718.43-1.08c-2.65-1.86-5.37-3.85-8.08-5.9l.61-.8c2.7,2.05,5.4,4,8,5.89Zm-1029.47-5-.51-.86c3.1-1.85,5.92-3.5,8.62-5l.5.87c-2.74,1.53-5.55,3.16-8.65,5Zm630.73-.33-.69-.72c2.25-2.17,4.59-4.45,7.15-7l.7.71c-2.6,2.52-4.94,4.83-7.2,7Zm-336.73-4c-3-1.78-5.85-3.4-8.66-4.95l.49-.88c2.81,1.56,5.65,3.18,8.68,5Zm719.51-2.73c-2.49-2-5-4.08-7.69-6.36l.64-.76c2.68,2.27,5.2,4.34,7.68,6.34Zm-996.19-2.86-.48-.88c3-1.63,6-3.18,8.87-4.62l.45.9c-2.9,1.42-5.87,3-8.88,4.59ZM591,343.53c-3-1.54-6-3-8.94-4.4l.43-.91q4.5,2.08,9,4.42Zm368.4-.45-.71-.7q3.52-3.56,7-7.12l.71.7-7,7.11Zm-609.81-4.4-.41-.91c3-1.4,6.12-2.74,9.17-4l.38.92c-3.07,1.25-6.15,2.59-9.18,4Zm963.1-1.09q-3.76-3.3-7.49-6.61l.67-.75q3.72,3.31,7.48,6.6ZM572.9,335.06c-3.06-1.29-6.18-2.53-9.25-3.67l.35-.94c3.09,1.15,6.21,2.39,9.29,3.69Zm-204.95-4-.34-.94c3.11-1.13,6.3-2.22,9.46-3.23l.31,1c-3.16,1-6.33,2.11-9.38,3.2Zm605.43-2.27-.71-.7c2.34-2.37,4.69-4.74,7.06-7.08l.71.71q-3.56,3.54-7.06,7.1Zm-419.14-.72c-3.14-1-6.35-2-9.53-2.88l.27-1c3.2.89,6.42,1.86,9.57,2.89Zm-167.31-3-.27-1c3.18-.87,6.45-1.68,9.7-2.43l.22,1c-3.24.74-6.49,1.55-9.65,2.42Zm910.75-.74-7.46-6.65.66-.75c2.5,2.21,5,4.43,7.47,6.65Zm-762.61-1.57c-3.21-.76-6.48-1.46-9.74-2.09l.19-1c3.27.63,6.56,1.34,9.78,2.09ZM406.33,320.6l-.18-1c3.23-.61,6.55-1.18,9.85-1.68l.15,1c-3.29.5-6.6,1.08-9.82,1.67ZM515.51,319c-3.23-.5-6.55-.95-9.87-1.35l.12-1c3.33.4,6.66.85,9.9,1.35ZM426,317.6l-.12-1c3.27-.39,6.62-.72,9.95-1l.09,1C432.62,316.89,429.29,317.22,426,317.6Zm69.69-1c-3.26-.28-6.6-.51-9.94-.69l.05-1c3.35.18,6.71.41,10,.69Zm-49.83-.68-.05-1c3.26-.18,6.62-.31,10-.4v1c-3.31.1-6.67.23-9.92.41Zm29.93-.41c-3.21-.08-6.49-.12-9.75-.12h-.22v-1H466c3.27,0,6.56,0,9.77.12Zm511.76-.76-.7-.72c2.56-2.46,4.94-4.7,7.28-6.86l.68.74c-2.31,2.16-4.68,4.4-7.23,6.85Zm295.11-3.67c-2.7-2.33-5.19-4.45-7.62-6.47l.64-.77c2.43,2,4.93,4.15,7.64,6.48Zm-280.42-9.82-.66-.76c2.58-2.24,5.15-4.4,7.64-6.42l.63.77c-2.45,2-5,4.15-7.58,6.42Zm265-2.94c-2.69-2.13-5.36-4.16-7.93-6.06l.6-.8c2.57,1.9,5.25,3.94,8,6.07Zm-249.56-9.6-.6-.8c2.71-2,5.45-4,8.15-5.81l.56.83c-2.63,1.83-5.35,3.78-8,5.79Zm233.5-2.23c-2.78-1.9-5.59-3.73-8.35-5.44l.53-.85c2.77,1.72,5.59,3.55,8.39,5.46Zm-217-8.95-.52-.85c2.87-1.74,5.79-3.42,8.69-5l.47.89c-2.82,1.58-5.75,3.24-8.6,5ZM1234.31,276c-2.91-1.62-5.88-3.18-8.82-4.63l.44-.9c3,1.46,5.94,3,8.86,4.65Zm-182.56-7.87-.43-.91c3-1.41,6.11-2.74,9.19-4l.37.93c-3.06,1.26-6.13,2.59-9.13,4Zm164.7-.92c-3-1.3-6.15-2.54-9.25-3.68l.35-.94c3.12,1.15,6.24,2.39,9.29,3.7Zm-146.23-6.45-.32-.95c3.14-1,6.36-2,9.58-2.89l.26,1c-3.2.85-6.4,1.81-9.52,2.85Zm127.55-.41c-3.14-1-6.36-1.86-9.58-2.67l.24-1c3.24.81,6.48,1.72,9.63,2.69Zm-108.36-4.79-.21-1c3.21-.68,6.52-1.29,9.83-1.81l.16,1c-3.29.53-6.59,1.14-9.78,1.82Zm89.07-.07c-3.21-.63-6.5-1.21-9.81-1.7l.15-1c3.32.5,6.63,1.07,9.85,1.71Zm-19.69-3c-3.24-.34-6.58-.61-9.92-.82l.06-1c3.35.2,6.71.48,10,.82Zm-49.74-.08-.1-1c3.27-.35,6.62-.62,10-.82l.06,1c-3.36.2-6.7.48-10,.83Zm29.87-1.15c-3.3-.08-6.69-.1-10,0v-1c3.3-.06,6.7,0,10,0Z" style="fill:#c5c9e0"/><g style="opacity:0.5"><path d="M799.4,419.82c-83.49,0-125.92-29.11-166.95-57.27s-83.21-57.11-166.38-57.11-125.49,28.09-166.39,55.24-83.46,55.41-167,55.41C67.56,416.09,29.1,390.6.07,365.66l.66-.75c28.88,24.81,67.16,50.18,132,50.18,83.19,0,125.49-28.08,166.39-55.24s83.46-55.41,167-55.41S592,333.56,633,361.72s83.2,57.1,166.38,57.1c37.28,0,69.56-9.17,98.69-28,26-16.84,47.15-39.7,67.61-61.8,41-44.32,83.48-90.16,167-90.16s126,39.22,167,77.15S1382.87,392.9,1466,392.9c65.49,0,104.51-20.4,134-40.35l.56.83c-29.66,20-68.85,40.52-134.61,40.52-83.53,0-126-39.22-167-77.15s-83.19-76.89-166.33-76.89c-37.28,0-69.56,9.18-98.68,28.05-26,16.84-47.15,39.69-67.62,61.79C925.39,374,883,419.82,799.4,419.82Z" style="fill:#c5c9e0"/></g><g style="opacity:0.5"><path d="M799.4,419.82c-83.5,0-125.93-31.49-167-61.95S549.19,296.12,466,296.12,340.6,326.43,299.69,355.75s-83.46,59.82-167,59.82C67.56,415.57,29.1,390.22.08,365.42l.64-.76c28.89,24.68,67.17,49.91,132,49.91,83.18,0,125.47-30.32,166.38-59.63s83.46-59.82,167-59.82S592,326.61,633,357.07s83.2,61.75,166.37,61.75c37.28,0,69.56-9.73,98.68-29.75,26-17.87,47.15-42.12,67.61-65.58,41-47,83.48-95.67,167-95.67s126,40.67,167,80,83.18,79.71,166.32,79.71c65.82,0,104.68-23.32,134-46.14l.62.79c-29.48,22.92-68.52,46.35-134.64,46.35-83.54,0-126-40.66-167-80-40.89-39.19-83.18-79.72-166.32-79.72-37.28,0-69.55,9.74-98.67,29.76-26,17.87-47.15,42.12-67.62,65.57C925.4,371.19,883,419.82,799.4,419.82Z" style="fill:#c5c9e0"/></g><g style="opacity:0.5"><path d="M799.4,418.82c-83.51,0-125.94-33.81-167-66.51S549.23,286,466.07,286,340.61,318.5,299.7,349.92,216.24,414,132.7,414C67.56,414.05,29.1,388.9.08,364.29l.64-.77c28.89,24.5,67.16,49.53,132,49.53,83.17,0,125.46-32.49,166.37-63.91S382.56,285,466.07,285,592,318.83,633,351.53s83.2,66.29,166.36,66.29c37.27,0,69.55-10.27,98.66-31.41,26-18.87,47.16-44.48,67.62-69.24s41.71-50.46,67.8-69.41c29.29-21.26,61.76-31.6,99.25-31.6,83.54,0,126,42,167,82.69,20.47,20.27,41.62,41.23,67.61,56.68,29.13,17.31,61.42,25.72,98.71,25.72,29,0,54.56-5.06,78-15.46,18.72-8.32,36.52-20.26,56-37.57l.66.75c-29.69,26.35-68.91,53.28-134.66,53.28-83.54,0-126-42-167-82.69-20.47-20.27-41.62-41.23-67.61-56.68-29.13-17.31-61.42-25.72-98.71-25.72s-69.54,10.27-98.66,31.41c-26,18.87-47.15,44.48-67.62,69.24s-41.7,50.46-67.8,69.41C869.36,408.48,836.89,418.82,799.4,418.82Z" style="fill:#c5c9e0"/></g><g style="opacity:0.5"><path d="M799.4,418.82c-83.52,0-125.95-36.12-167-71.05S549.22,277,466.07,277s-125.45,34.66-166.35,68.18-83.47,68.4-167,68.4c-65.17,0-103.63-25-132.65-49.4l.64-.76c28.89,24.31,67.16,49.16,132,49.16,83.16,0,125.45-34.66,166.35-68.18s83.47-68.4,167-68.4,126,36.12,167,71.05,83.19,70.81,166.34,70.81c37.27,0,69.54-10.81,98.66-33.06,26-19.86,47.15-46.81,67.61-72.88s41.71-53.11,67.8-73c29.3-22.38,61.77-33.27,99.26-33.27,83.55,0,126,43.4,167,85.37,20.46,20.92,41.62,42.56,67.61,58.51,29.12,17.87,61.41,26.55,98.7,26.55,65.66,0,104.57-29.7,134-58.75l.7.71c-29.55,29.2-68.66,59-134.68,59-83.55,0-126-43.39-167-85.36-20.46-20.93-41.62-42.57-67.61-58.51-29.12-17.87-61.41-26.56-98.7-26.56s-69.54,10.82-98.65,33.07c-26,19.86-47.15,46.81-67.62,72.87s-41.71,53.12-67.8,73.05C869.37,407.94,836.9,418.82,799.4,418.82Z" style="fill:#c5c9e0"/></g><g style="opacity:0.5"><path d="M799.4,417.82c-83.53,0-126-38.43-167-75.59s-83.19-75.34-166.33-75.34-125.44,36.83-166.34,72.45S216.25,412,132.73,412C67.57,412,29.11,387.24.08,363l.64-.77c28.89,24.13,67.17,48.8,132,48.8,83.15,0,125.44-36.83,166.34-72.45s83.48-72.69,167-72.69,126,38.43,167,75.6,83.19,75.33,166.33,75.33c37.26,0,69.53-11.35,98.65-34.71,26-20.86,47.15-49.15,67.62-76.52s41.7-55.77,67.79-76.7c29.3-23.51,61.77-34.94,99.27-34.94,83.55,0,126,44.76,167,88.05,20.47,21.58,41.63,43.9,67.62,60.35,29.12,18.42,61.4,27.38,98.69,27.38,65.49,0,104.47-33,134-65.3l.74.67c-29.64,32.46-68.82,65.63-134.7,65.63-83.55,0-126-44.76-167-88-20.47-21.59-41.63-43.9-67.62-60.35C1202.3,203.91,1170,195,1132.73,195s-69.53,11.36-98.64,34.72c-26,20.85-47.16,49.15-67.62,76.52s-41.71,55.77-67.8,76.7C869.37,406.4,836.9,417.82,799.4,417.82Z" style="fill:#c5c9e0"/></g><g style="opacity:0.5"><path d="M799.4,416.82c-83.53,0-126-40.74-167-80.14s-83.19-79.86-166.32-79.86-125.43,39-166.33,76.72-83.48,77-167,77C67.6,410.54,29.14,385.93.1,361.85l.64-.77c28.9,24,67.18,48.46,132,48.46,83.14,0,125.43-39,166.33-76.72s83.48-77,167-77,126,40.74,167,80.14,83.19,79.86,166.32,79.86c37.26,0,69.53-11.89,98.64-36.36,26-21.85,47.15-51.5,67.62-80.17s41.7-58.43,67.79-80.36c29.3-24.63,61.78-36.6,99.28-36.6,83.56,0,126,46.13,167,90.73,20.46,22.25,41.62,45.24,67.61,62.19,29.12,19,61.4,28.22,98.69,28.22,65.57,0,104.51-36,134-71.29l.76.64c-19.45,23.3-37.36,39.42-56.34,50.74-23.6,14.07-49.23,20.91-78.37,20.91-83.56,0-126-46.12-167-90.73-20.46-22.24-41.62-45.24-67.61-62.18-29.12-19-61.4-28.23-98.69-28.23s-69.52,11.9-98.63,36.37c-26,21.85-47.16,51.5-67.63,80.17s-41.7,58.42-67.79,80.35C869.38,404.85,836.91,416.82,799.4,416.82Z" style="fill:#c5c9e0"/></g><g style="opacity:0.5"><path d="M799.4,415.82c-83.54,0-126-43.05-167-84.69-20.47-20.75-41.63-42.22-67.62-58-29.12-17.73-61.4-26.34-98.69-26.34S396.49,255,367.36,272c-26,15.18-47.15,35.78-67.61,55.7-41,40-83.48,81.27-167,81.27C67.57,409,29.11,384.59.08,360.71l.64-.78C29.61,383.7,67.89,408,132.73,408c37.29,0,69.58-8.27,98.71-25.28,26-15.18,47.15-35.78,67.61-55.7,41-40,83.48-81.27,167-81.27s126,43.05,167,84.68c20.46,20.76,41.62,42.23,67.61,58.05,29.13,17.73,61.41,26.34,98.7,26.34s69.52-12.43,98.63-38C924,354,945.19,323,965.65,293s41.71-61.08,67.79-84c29.31-25.75,61.78-38.27,99.29-38.27,83.56,0,126,47.5,167,93.43,20.47,22.9,41.63,46.58,67.62,64,29.12,19.55,61.4,29.06,98.68,29.06,65.68,0,104.56-40.92,133.93-80.93l.8.59c-29.51,40.22-68.6,81.34-134.73,81.34-83.56,0-126-47.5-167-93.43-20.47-22.9-41.63-46.58-67.62-64-29.12-19.55-61.4-29.06-98.68-29.06s-69.51,12.44-98.63,38c-26,22.85-47.15,53.85-67.62,83.82s-41.7,61.09-67.79,84C869.39,403.31,836.91,415.82,799.4,415.82Z" style="fill:#c5c9e0"/></g><g style="opacity:0.5"><path d="M799.4,416.32c-37.49,0-70-10-99.27-30.67-26.11-18.39-47.34-43.29-67.86-67.38s-41.67-48.89-67.67-67.2c-29.14-20.52-61.42-30.5-98.7-30.5s-69.55,9.6-98.65,29.35c-26,17.63-47.12,41.55-67.56,64.68-41,46.39-83.4,94.37-167,94.37C67.57,409,29.11,384.66.08,360.89l.64-.77C29.61,383.78,67.88,408,132.73,408c37.28,0,69.55-9.6,98.65-29.35,26-17.63,47.12-41.55,67.56-64.68,41-46.39,83.4-94.37,167-94.37,37.49,0,70,10,99.27,30.68,26.11,18.39,47.34,43.29,67.86,67.37s41.67,48.89,67.67,67.21c29.14,20.52,61.42,30.49,98.7,30.49s69.5-14.56,98.63-44.53c26-26.77,47.2-63.09,67.69-98.22s41.74-71.55,67.84-98.41c29.32-30.17,61.81-44.84,99.34-44.84s70,11.43,99.25,35c26.07,20.94,47.25,49.3,67.73,76.73s41.59,55.68,67.57,76.54c29.09,23.37,61.35,34.73,98.62,34.73,65.66,0,104.53-52,133.9-102.82l.86.5c-29.5,51.09-68.59,103.32-134.76,103.32-37.51,0-70-11.43-99.25-35-26.07-20.94-47.25-49.3-67.74-76.73s-41.58-55.68-67.56-76.54c-29.1-23.37-61.36-34.73-98.62-34.73s-69.5,14.57-98.63,44.54c-26,26.77-47.2,63.09-67.69,98.22s-41.74,71.55-67.84,98.4C869.42,401.66,836.93,416.32,799.4,416.32Z" style="fill:#c5c9e0"/></g><g style="opacity:0.5"><path d="M799.4,416.82c-37.53,0-70-14.91-99.32-45.59C674,343.93,652.8,306.94,632.3,271.18s-41.64-72.65-67.64-99.87C535.56,140.84,503.31,126,466.07,126s-69.5,14.2-98.61,43.42c-26,26.1-47.16,61.51-67.63,95.75s-41.7,69.76-67.78,95.94c-29.31,29.41-61.79,43.71-99.32,43.71C67.48,404.85,29,365.31,0,326.62l.8-.6c28.87,38.49,67.12,77.83,131.93,77.83,37.25,0,69.5-14.2,98.61-43.42,26-26.09,47.16-61.5,67.63-95.74s41.7-69.76,67.78-95.95C396.06,139.33,428.54,125,466.07,125s70,14.91,99.32,45.59c26.08,27.31,47.28,64.29,67.78,100.06s41.63,72.64,67.63,99.86c29.11,30.47,61.36,45.28,98.6,45.28s69.44-21.18,98.54-64.75c26-38.94,47.19-91.76,67.66-142.84s41.69-104,67.76-143c29.3-43.87,61.81-65.2,99.37-65.2s70,16.06,99.34,49.11c26.08,29.41,47.27,69.24,67.77,107.76s41.64,78.25,67.64,107.57c29.11,32.82,61.35,48.77,98.59,48.77,28.89,0,54.32-13,77.74-39.75,18.9-21.6,36.74-52.39,56.13-96.9l.92.4c-29.57,67.87-68.71,137.25-134.79,137.25-37.54,0-70-16.06-99.34-49.1-26.08-29.41-47.27-69.25-67.77-107.77s-41.64-78.25-67.64-107.57C1202.21,17,1170,1,1132.73,1s-69.43,21.18-98.54,64.75c-26,38.94-47.18,91.76-67.66,142.85s-41.68,104-67.76,143C869.47,395.5,837,416.82,799.4,416.82Z" style="fill:#c5c9e0"/></g><path d="M1600.4,422.82v-16c-33.33,6.55-71.59,11.8-134.33,11.8-166.67,0-166.68-101.76-333.34-101.76-157.72,0-166.18,94.45-307.9,104.58H766c-134.13-7.39-145.22-59-299.94-59C299.4,362.43,299.4,421,132.73,421,71.7,421,33.1,403.44.4,381.22v41.6Z" style="fill:#fff;fill-rule:evenodd"/></svg>
